<svg width="1024" height="1024" viewBox="0 0 1024 1024" fill="none" xmlns="http://www.w3.org/2000/svg">
<rect width="1024" height="1024" rx="200" fill="url(#paint0_linear_601_723)"/>
<g filter="url(#filter0_di_601_723)">
<path d="M276.711 122.551C332.419 107.69 380.506 131.344 416.8 162.793C453.359 194.473 479.673 235.412 492.728 258.562C497.259 266.598 501.205 270.195 503.875 271.707C506.192 273.019 507.995 273.046 509.8 272.525C514.568 271.149 520.207 265.472 523.997 258.892C587.468 123.316 686.413 109.931 731.416 122.942C735.599 124.152 738.714 127.661 739.419 131.958C748.545 187.592 717.172 232.432 679.407 263.644C641.596 294.893 594.931 314.691 566.982 320.485C562.963 321.319 559.399 324.129 556.458 330.775C553.422 337.635 551.739 347.275 551.385 358.538C551.068 368.622 551.834 379.224 553.189 389.006C579.467 392.811 603.322 399.844 624.755 410.107C656.809 425.457 683.446 445.323 704.665 469.702C726.336 493.63 742.363 520.944 752.747 551.644C763.582 582.343 769 613.721 769 645.775C769 677.83 763.582 709.207 752.747 739.907C742.363 770.607 726.336 798.147 704.665 822.526C683.446 846.454 656.809 866.093 624.755 881.443C592.7 896.342 555.228 904.243 512.338 905.146C469.448 903.791 431.75 895.439 399.244 880.089C367.19 864.739 340.328 845.1 318.657 821.172C297.438 796.792 281.41 769.253 270.575 738.553C260.191 707.853 255 676.475 255 644.421C255 612.818 260.418 581.892 271.253 551.644C282.088 520.944 298.115 493.63 319.334 469.702C341.005 445.774 367.867 426.135 399.922 410.785C420.403 400.977 443.095 394.026 467.999 389.932C471.048 368.606 469.793 353.19 466.39 342.495C461.769 327.974 453.305 322.146 444.944 320.511C299.592 292.081 265.257 185.228 267.128 133.378C267.3 128.613 270.445 124.488 274.953 123.04L275.394 122.908L276.711 122.551ZM512.338 530.65C497.891 530.65 483.669 533.133 469.674 538.1C455.678 542.614 443.038 549.838 431.751 559.771C420.916 569.251 412.112 581.215 405.34 595.662C398.568 610.109 395.182 626.814 395.182 645.775C395.633 664.737 399.245 681.442 406.017 695.889C412.789 710.336 421.592 722.526 432.428 732.458C443.714 741.939 456.13 749.163 469.674 754.129C483.669 758.644 497.891 760.901 512.338 760.901C526.785 760.901 541.006 758.644 555.002 754.129C568.998 749.163 581.414 741.939 592.249 732.458C603.084 722.526 611.888 710.336 618.66 695.889C625.432 681.442 629.044 664.737 629.495 645.775C629.495 626.814 626.109 610.109 619.337 595.662C612.565 581.215 603.536 569.251 592.249 559.771C581.414 549.838 568.998 542.614 555.002 538.1C541.006 533.134 526.785 530.65 512.338 530.65Z" fill="url(#paint1_linear_601_723)"/>
</g>
<defs>
<filter id="filter0_di_601_723" x="231.668" y="102.413" width="560.664" height="833.81" filterUnits="userSpaceOnUse" color-interpolation-filters="sRGB">
<feFlood flood-opacity="0" result="BackgroundImageFix"/>
<feColorMatrix in="SourceAlpha" type="matrix" values="0 0 0 0 0 0 0 0 0 0 0 0 0 0 0 0 0 0 127 0" result="hardAlpha"/>
<feOffset dy="7.745"/>
<feGaussianBlur stdDeviation="11.6659"/>
<feComposite in2="hardAlpha" operator="out"/>
<feColorMatrix type="matrix" values="0 0 0 0 0 0 0 0 0 0 0 0 0 0 0 0 0 0 0.25 0"/>
<feBlend mode="normal" in2="BackgroundImageFix" result="effect1_dropShadow_601_723"/>
<feBlend mode="normal" in="SourceGraphic" in2="effect1_dropShadow_601_723" result="shape"/>
<feColorMatrix in="SourceAlpha" type="matrix" values="0 0 0 0 0 0 0 0 0 0 0 0 0 0 0 0 0 0 127 0" result="hardAlpha"/>
<feOffset dy="-7.745"/>
<feGaussianBlur stdDeviation="10.843"/>
<feComposite in2="hardAlpha" operator="arithmetic" k2="-1" k3="1"/>
<feColorMatrix type="matrix" values="0 0 0 0 0.141176 0 0 0 0 0.784314 0 0 0 0 0.596078 0 0 0 0.45 0"/>
<feBlend mode="normal" in2="shape" result="effect2_innerShadow_601_723"/>
</filter>
<linearGradient id="paint0_linear_601_723" x1="512" y1="0" x2="512" y2="1024" gradientUnits="userSpaceOnUse">
<stop stop-color="#24C898"/>
<stop offset="1" stop-color="#24C898"/>
</linearGradient>
<linearGradient id="paint1_linear_601_723" x1="511.553" y1="439.229" x2="512" y2="1367.5" gradientUnits="userSpaceOnUse">
<stop stop-color="white"/>
<stop offset="1" stop-color="#5ED3B1"/>
</linearGradient>
</defs>
</svg>
